# AST/ASF file generated using VICON BodyLanguage
# -----------------------------------------------
:version 1.10
:name VICON
:units
  mass 1.0
  length 0.45
  angle deg
:documentation
   .ast/.asf automatically generated from VICON data using
   VICON BodyBuilder and BodyLanguage model FoxedUp or BRILLIANT.MOD
:root
   order TX TY TZ RX RY RZ
   axis XYZ
   position 0 0 0  
   orientation 0 0 0 
:bonedata
  begin
     id 1 
     name lhipjoint
     direction 0.567149 -0.783011 0.255413 
     length 2.28399 
     axis 0 0 0  XYZ
  end
  begin
     id 2 
     name lfemur
     direction 0.34202 -0.939693 0  
     length 7.34031  
     axis 0 0 20  XYZ
    dof rx ry rz
    limits (-160.0 20.0)
           (-70.0 70.0)
           (-60.0 70.0)
  end
  begin
     id 3 
     name ltibia
     direction 0.34202 -0.939693 0   
     length 6.9833   
     axis 0 0 20   XYZ
    dof rx
    limits (-10.0 170.0)
  end
  begin
     id 4 
     name lfoot
     direction 0.136498 -0.375025 0.91691   
     length 2.33665   
     axis -90 7.62852e-016 20   XYZ
    dof rx rz
    limits (-45.0 90.0)
           (-70.0 20.0)
  end
  begin
     id 5 
     name ltoes
     direction 1.5367e-011 -4.21617e-011 1   
     length 1.15039   
     axis -90 7.62852e-016 20   XYZ
    dof rx
    limits (-90.0 20.0)
  end
  begin
     id 6 
     name rhipjoint
     direction -0.602854 -0.758518 0.247423   
     length 2.35775  
     axis 0 0 0  XYZ 
  end
  begin
     id 7 
     name rfemur
     direction -0.34202 -0.939693 0   
     length 7.43932   
     axis 0 0 -20   XYZ
    dof rx ry rz
    limits (-160.0 20.0)
           (-70.0 70.0)
           (-70.0 60.0)
  end
  begin
     id 8 
     name rtibia
     direction -0.34202 -0.939693 0   
     length 7.11893   
     axis 0 0 -20   XYZ
    dof rx
    limits (-10.0 170.0)
 end
 begin
     id 9 
     name rfoot
     direction -0.131771 -0.362037 0.922803   
     length 2.53019  
     axis -90 -7.62852e-016 -20   XYZ
    dof rx rz
    limits (-45.0 90.0)
           (-20.0 70.0)
  end
  begin
     id 10 
     name rtoes
     direction -1.53733e-011 -4.21932e-011 1   
     length 1.24596   
     axis -90 -7.62852e-016 -20   XYZ
    dof rx
    limits (-90.0 20.0)
  end
  begin
     id 11 
     name lowerback
     direction 0.0235427 0.999023 -0.0374125   
     length 2.21768   
     axis 0 0 0   XYZ
    dof rx ry rz
    limits (-20.0 45.0)
           (-30.0 30.0)
           (-30.0 30.0)
  end
  begin
     id 12 
     name upperback
     direction 0.0302156 0.996818 -0.073759   
     length 2.20352   
     axis 0 0 0   XYZ
    dof rx ry rz
    limits (-20.0 45.0)
           (-30.0 30.0)
           (-30.0 30.0)
  end
  begin
     id 13 
     name thorax
     direction 0.0187169 0.998235 -0.0563532   
     length 2.22103   
     axis 0 0 0   XYZ
    dof rx ry rz
    limits (-20.0 45.0)
           (-30.0 30.0)
           (-30.0 30.0)
  end
  begin
     id 14 
     name lowerneck
     direction -0.119528 0.987423 0.103481   
     length 1.72948   
     axis 0 0 0   XYZ
    dof rx ry rz
    limits (-20.0 45.0)
           (-30.0 30.0)
           (-30.0 30.0)
  end
  begin
     id 15 
     name upperneck
     direction 0.248049 0.963095 -0.104496   
     length 1.74979   
     axis 0 0 0   XYZ
    dof rx ry rz
    limits (-20.0 45.0)
           (-30.0 30.0)
           (-30.0 30.0)
  end
  begin
     id 16
     name head
     direction 0.0903589 0.994284 -0.056876  
     length 1.78268  
     axis 0 0 0   XYZ
    dof rx ry rz
    limits (-20.0 45.0)
           (-30.0 30.0)
           (-30.0 30.0)
  end
  begin
     id 17 
     name lclavicle
     direction 0.946008 0.242039 -0.215608  
     length 3.80783  
     axis 0 0 0   XYZ
    dof ry rz
    limits (-20.0 10.0)
           (0.0 20.0)
  end
  begin
     id 18 
     name lhumerus
     direction 1 -4.48991e-011 -2.25695e-027   
     length 4.83125   
     axis 180 -30 -90   XYZ
    dof rx ry rz
    limits (-60.0 90.0)
           (-90.0 90.0)
           (-90.0 90.0)
  end
  begin
     id 19
     name lradius
     direction 0.999991 0.00366712 -0.00211721   
     length 3.00391   
     axis 180 -30 -90   XYZ
    dof rx
    limits (-10.0 170.0)
  end
  begin
     id 20
     name lwrist
     direction 0.999991 0.00393016 -0.00141978   
     length 1.50195   
     axis -1.00488e-014 90 90   XYZ
    dof ry
    limits (-180.0 0.0)
 end
  begin
     id 21 
     name lhand
     direction 1 -4.49123e-011 2.72098e-026   
     length 1.2717   
     axis -1.73687e-014 90 90   XYZ
    dof rx rz
    limits (-90.0 90.0)
           (-45.0 45.0)
  end
  begin
     id 22 
     name lfingers
     direction 1 -4.48678e-011 5.4479e-026   
     length 1.02528   
     axis -3.47372e-014 90 90   XYZ
    dof rx
    limits (0.0 90.0)
  end
  begin
     id 23
     name lthumb
     direction 0.707107 -6.34851e-011 0.707107   
     length 1.4721   
     axis -90 45 -1.62303e-014   XYZ
    dof rx rz
    limits (-45.0 45.0)
           (-45.0 45.0)
  end
  begin
     id 24 
     name rclavicle
     direction -0.981723 0.189447 -0.0181673   
     length 3.74989  
     axis 0 0 0   XYZ 
    dof ry rz
    limits (-10.0 20.0)
           (-20.0 0.0)
  end
  begin
     id 25 
     name rhumerus
     direction -1 -4.48985e-011 2.38206e-027  
     length 4.61118   
     axis 180 30 90   XYZ
    dof rx ry rz
    limits (-90.0 60.0)
           (-90.0 90.0)
           (-90.0 90.0)
  end
  begin
     id 26 
     name rradius
     direction -1 -4.48977e-011 7.41019e-027   
     length 2.91491   
     axis 180 30 90   XYZ
    dof rx
    limits (-10.0 170.0)
  end
  begin
     id 27 
     name rwrist
     direction -1 -4.48549e-011 1.3624e-026   
     length 1.45745   
     axis -1.00488e-014 -90 -90   XYZ
    dof ry
    limits (-180.0 0.0)
  end
  begin
     id 28
     name rhand
     direction -1 -4.49107e-011 2.72109e-026   
     length 1.30769   
     axis -1.73687e-014 -90 -90   XYZ
    dof rx rz
    limits (-90.0 90.0)
           (-45.0 45.0)
  end
  begin
     id 29
     name rfingers
     direction -1 -4.48919e-011 5.44468e-026   
     length 1.05429   
     axis -3.47372e-014 -90 -90   XYZ
    dof rx
    limits (0.0 90.0)
  end
  begin
     id 30
     name rthumb
     direction -0.707107 -6.35315e-011 0.707107   
     length 1.51376   
     axis -90 -45 1.62303e-014   XYZ
    dof rx rz
    limits (-45.0 45.0)
           (-45.0 45.0)
  end
:hierarchy
  begin
    root lhipjoint rhipjoint lowerback
    lhipjoint lfemur
    lfemur ltibia
    ltibia lfoot
    lfoot ltoes
    rhipjoint rfemur
    rfemur rtibia
    rtibia rfoot
    rfoot rtoes
    lowerback upperback
    upperback thorax
    thorax lowerneck lclavicle rclavicle
    lowerneck upperneck
    upperneck head
    lclavicle lhumerus
    lhumerus lradius
    lradius lwrist
    lwrist lhand lthumb
    lhand lfingers
    rclavicle rhumerus
    rhumerus rradius
    rradius rwrist
    rwrist rhand rthumb
    rhand rfingers
  end

#!OML:ASF X:\für Bonn\!DataBase\2005_08_11_Bastian_Final\c3d\Bastian.ASF
:FULLY-SPECIFIED
:DEGREES
1
root -2.92417 17.2232 -8.52739 167.35 11.2063 -176.188
lowerback 11.263 -3.84307 1.50326
upperback 8.05924 -3.94708 2.82815
thorax 2.21963 -1.5403 2.47203
lowerneck -1.44144 -1.81478 1.44214
upperneck -13.3831 -1.56892 1.52137
head -4.11897 -0.622078 0.282988
rclavicle 2.78299e-015 -5.24792e-014
rhumerus -220.117 -174.44 101.426
rradius 67.3102
rwrist -159.057
rhand -15.5572 4.19525
rfingers 7.12502
rthumb 10.6273 -25.516
lclavicle 2.78299e-015 -5.24792e-014
lhumerus -32.3716 -12.3183 94.7511
lradius 64.5171
lwrist 210.402
lhand -31.7513 11.2924
lfingers 7.12502
lthumb -5.00864 41.2132
rfemur -0.254731 -12.6714 23.9078
rtibia 39.4533
rfoot -24.3356 -11.2611
rtoes -16.3678
lfemur -9.38914 9.94131 -10.6555
ltibia 56.1981
lfoot -10.7923 4.97858
ltoes -22.322
2
root -2.90127 17.2302 -8.469 167.548 10.3077 -176.149
lowerback 10.6425 -3.85473 1.41043
upperback 7.9834 -4.02102 2.85853
thorax 2.48671 -1.59385 2.52843
lowerneck -1.31293 -2.07696 1.37534
upperneck -13.2927 -1.93129 1.59242
head -4.10911 -0.806768 0.330528
rclavicle 2.98177e-015 1.59028e-015
rhumerus -220.343 -174.899 101.214
rradius 68.4887
rwrist -158.818
rhand -15.5158 4.00647
rfingers 7.12502
rthumb 10.6673 -25.7027
lclavicle 2.98177e-015 1.59028e-015
lhumerus -32.414 -12.8277 94.847
lradius 64.7155
lwrist 210.456
lhand -31.5474 11.1596
lfingers 7.12502
lthumb -4.81173 41.0849
rfemur -0.678734 -13.1752 24.0182
rtibia 39.5835
rfoot -24.5159 -11.5491
rtoes -16.2554
lfemur -8.15142 10.1089 -10.8211
ltibia 56.6671
lfoot -10.9679 5.70284
ltoes -23.0182
3
root -2.87826 17.2377 -8.41101 167.8 9.42634 -176.039
lowerback 9.94477 -3.8664 1.39333
upperback 7.92816 -4.09049 2.88945
thorax 2.81347 -1.6412 2.53708
lowerneck -1.19049 -2.35372 1.31479
upperneck -13.265 -2.3007 1.70811
head -4.11987 -0.994711 0.3926
rclavicle -6.36111e-014 3.73715e-014
rhumerus -220.489 -175.291 100.959
rradius 69.671
rwrist -158.504
rhand -15.4643 3.85876
rfingers 7.12502
rthumb 10.7169 -25.8479
lclavicle -6.36111e-014 3.73715e-014
lhumerus -32.3779 -13.3963 94.862
lradius 64.9299
lwrist 210.555
lhand -31.3751 11.0785
lfingers 7.12502
lthumb -4.64534 41.0076
rfemur -1.13821 -13.5803 24.2695
rtibia 39.6468
rfoot -24.6212 -11.9455
rtoes -15.9725
lfemur -6.87019 10.2575 -10.8794
ltibia 56.9019
lfoot -11.2139 6.48028
ltoes -23.8751
4
root -2.85773 17.2423 -8.35358 168.092 8.51443 -175.896
lowerback 9.22408 -3.9003 1.42435
upperback 7.85552 -4.189 2.92403
thorax 3.13396 -1.70179 2.52252
lowerneck -1.14982 -2.61269 1.23256
upperneck -13.1331 -2.65389 1.83252
head -4.07592 -1.17499 0.458867
rclavicle 9.14409e-015 -7.15625e-015
rhumerus -220.606 -175.698 100.706
rradius 70.8356
rwrist -158.142
rhand -15.3455 3.63959
rfingers 7.12502
rthumb 10.8315 -26.0611
lclavicle 9.14409e-015 -7.15625e-015
lhumerus -32.3138 -13.8994 94.853
lradius 65.1734
lwrist 210.623
lhand -31.2675 10.9527
lfingers 7.12502
lthumb -4.54147 40.884
rfemur -1.63161 -14.0299 24.5403
rtibia 39.6615
rfoot -24.6919 -12.2918
rtoes -15.7527
lfemur -5.53596 10.4059 -10.8849
ltibia 56.9135
lfoot -11.4781 7.17682
ltoes -24.4121
5
root -2.8371 17.2506 -8.29661 168.394 7.59338 -175.77
lowerback 8.4873 -3.93275 1.42367
upperback 7.78655 -4.28871 2.96009
thorax 3.47178 -1.76418 2.52444
lowerneck -1.12017 -2.89209 1.13891
upperneck -13.004 -3.03374 1.96544
head -4.0297 -1.36803 0.530232
rclavicle 2.64384e-014 -7.15625e-015
rhumerus -220.702 -176.128 100.462
rradius 72.0261
rwrist -157.72
rhand -15.1698 3.45738
rfingers 7.12502
rthumb 11.001 -26.2344
lclavicle 2.64384e-014 -7.15625e-015
lhumerus -32.2346 -14.411 94.8073
lradius 65.4432
lwrist 210.689
lhand -31.1963 10.9447
lfingers 7.12502
lthumb -4.47269 40.8775
rfemur -2.13335 -14.4913 24.7969
rtibia 39.6348
rfoot -24.723 -12.5895
rtoes -15.4412
lfemur -4.18397 10.5934 -10.8676
ltibia 56.7377
lfoot -11.6285 7.69323
ltoes -24.5828
6
root -2.81714 17.2603 -8.23838 168.708 6.64187 -175.643
lowerback 7.76076 -3.98237 1.39876
upperback 7.72236 -4.41063 3.00376
thorax 3.81459 -1.83802 2.54743
lowerneck -1.13457 -3.15159 1.04666
upperneck -12.873 -3.3864 2.08633
head -3.97394 -1.54607 0.595179
rclavicle 4.17448e-015 8.74653e-015
rhumerus -220.772 -176.551 100.225
rradius 73.2247
rwrist -157.275
rhand -14.9363 3.23351
rfingers 7.12502
rthumb 11.2261 -26.4461
lclavicle 4.17448e-015 8.74653e-015
lhumerus -32.0793 -14.8363 94.7344
lradius 65.6679
lwrist 210.77
lhand -31.2421 11.0054
lfingers 7.12502
lthumb -4.51691 40.9373
rfemur -2.6587 -15.001 25.052
rtibia 39.5801
rfoot -24.6949 -12.9146
rtoes -15.2231
lfemur -2.87542 10.7754 -10.8104
ltibia 56.3925
lfoot -11.6223 8.08151
ltoes -24.6218
7
root -2.79722 17.2702 -8.18014 169.025 5.70569 -175.501
lowerback 7.06483 -4.0281 1.38991
upperback 7.63991 -4.52639 3.04125
thorax 4.12107 -1.90844 2.55494
lowerneck -1.16944 -3.41887 0.961385
upperneck -12.692 -3.75111 2.22999
head -3.89532 -1.73226 0.665011
rclavicle 2.04748e-014 -4.29375e-014
rhumerus -220.842 -176.963 99.976
rradius 74.4134
rwrist -156.801
rhand -14.6385 3.04186
rfingers 7.12502
rthumb 11.5133 -26.6219
lclavicle 2.04748e-014 -4.29375e-014
lhumerus -31.9094 -15.248 94.6
lradius 66.0012
lwrist 210.886
lhand -31.4003 10.7863
lfingers 7.12502
lthumb -4.66964 40.7148
rfemur -3.17709 -15.461 25.3414
rtibia 39.4972
rfoot -24.6662 -13.2377
rtoes -14.9582
lfemur -1.55958 11.0089 -10.6822
ltibia 55.9088
lfoot -11.5064 8.37606
ltoes -24.7083
8
root -2.7775 17.2783 -8.1201 169.33 4.7463 -175.334
lowerback 6.40759 -4.08482 1.38641
upperback 7.56213 -4.65241 3.08253
thorax 4.41308 -1.98236 2.56411
lowerneck -1.17908 -3.68599 0.94444
upperneck -12.559 -4.11488 2.32546
head -3.84084 -1.91848 0.707712
rclavicle 3.52843e-015 -1.98785e-014
rhumerus -220.92 -177.401 99.7209
rradius 75.6748
rwrist -156.375
rhand -14.2953 2.96533
rfingers 7.12502
rthumb 11.8444 -26.6797
lclavicle 3.52843e-015 -1.98785e-014
lhumerus -31.7324 -15.733 94.4141
lradius 66.4464
lwrist 211.129
lhand -31.5324 10.4786
lfingers 7.12502
lthumb -4.79723 40.4043
rfemur -3.7119 -15.9045 25.6664
rtibia 39.4226
rfoot -24.5823 -13.5877
rtoes -14.6872
lfemur -0.192642 11.2275 -10.4807
ltibia 55.2891
lfoot -11.4349 8.56247
ltoes -24.4447
9
root -2.75914 17.2822 -8.06085 169.658 3.80757 -175.15
lowerback 5.74034 -4.13911 1.38173
upperback 7.46355 -4.77728 3.15242
thorax 4.69306 -2.05698 2.60142
lowerneck -1.13857 -3.94476 0.870438
upperneck -12.4384 -4.46681 2.44709
head -3.79798 -2.09827 0.769387
rclavicle -2.93207e-014 2.70347e-014
rhumerus -221.008 -177.839 99.5099
rradius 76.9459
rwrist -155.958
rhand -13.9132 2.91698
rfingers 7.12502
rthumb 12.2128 -26.7065
lclavicle -2.93207e-014 2.70347e-014
lhumerus -31.5578 -16.2434 94.2419
lradius 66.9461
lwrist 211.478
lhand -31.6098 10.2795
lfingers 7.12502
lthumb -4.87198 40.2035
rfemur -4.31814 -16.3365 26.0256
rtibia 39.3863
rfoot -24.4362 -13.9811
rtoes -14.5306
lfemur 1.18815 11.4559 -10.2272
ltibia 54.5397
lfoot -11.411 8.66101
ltoes -23.8567
10
root -2.74227 17.2802 -8.00159 169.948 2.83608 -174.96
lowerback 5.11386 -4.22178 1.36852
upperback 7.37345 -4.93549 3.23016
thorax 4.9639 -2.14706 2.65239
lowerneck -1.11106 -4.20079 0.758459
upperneck -12.3244 -4.81635 2.5601
head -3.75346 -2.27452 0.834026
rclavicle -1.5704e-014 3.53837e-014
rhumerus -221.078 -178.285 99.3164
rradius 78.2806
rwrist -155.543
rhand -13.5898 2.94854
rfingers 7.12502
rthumb 12.5246 -26.6561
lclavicle -1.5704e-014 3.53837e-014
lhumerus -31.3187 -16.6968 94.0374
lradius 67.5034
lwrist 211.856
lhand -31.6199 10.041
lfingers 7.12502
lthumb -4.8817 39.9648
rfemur -4.95263 -16.7465 26.3903
rtibia 39.411
rfoot -24.2564 -14.4731
rtoes -14.544
lfemur 2.61124 11.6264 -9.94503
ltibia 53.644
lfoot -11.4604 8.67551
ltoes -23.4719
11
root -2.727 17.2743 -7.94129 170.228 1.86878 -174.774
lowerback 4.51553 -4.30029 1.37595
upperback 7.27754 -5.0867 3.28625
thorax 5.20997 -2.23204 2.66903
lowerneck -1.04192 -4.45031 0.675398
upperneck -12.2388 -5.14993 2.71355
head -3.72614 -2.44564 0.90787
rclavicle -1.14301e-014 -7.55382e-015
rhumerus -221.203 -178.661 99.1064
rradius 79.6997
rwrist -155.075
rhand -13.33 3.00771
rfingers 7.12502
rthumb 12.7751 -26.5814
lclavicle -1.14301e-014 -7.55382e-015
lhumerus -31.0169 -17.1736 93.7635
lradius 68.1625
lwrist 212.215
lhand -31.5712 9.59083
lfingers 7.12502
lthumb -4.8347 39.5157
rfemur -5.63059 -17.1763 26.7411
rtibia 39.5031
rfoot -24.0234 -14.8865
rtoes -14.5215
lfemur 4.04362 11.7577 -9.66369
ltibia 52.5945
lfoot -11.7342 8.48881
ltoes -23.8981
